<mxfile host="app.diagrams.net" modified="2023-07-06T01:02:22.088Z" agent="Mozilla/5.0 (Windows NT 10.0; Win64; x64) AppleWebKit/537.36 (KHTML, like Gecko) Chrome/114.0.0.0 Safari/537.36 Edg/114.0.1823.67" etag="JXYsrcuZe3Lci4IZdwxT" version="21.5.2" type="device">
  <diagram name="ページ1" id="W2Vp5XM-lhELi4O4A3Qn">
    <mxGraphModel dx="733" dy="370" grid="1" gridSize="10" guides="1" tooltips="1" connect="1" arrows="1" fold="1" page="1" pageScale="1" pageWidth="827" pageHeight="1169" math="0" shadow="0">
      <root>
        <mxCell id="0" />
        <mxCell id="1" parent="0" />
        <mxCell id="VzdWUlr6IKHgVLrbJuW6-1" value="：マネージャ" style="rounded=0;whiteSpace=wrap;html=1;" vertex="1" parent="1">
          <mxGeometry x="180" y="260" width="120" height="60" as="geometry" />
        </mxCell>
        <mxCell id="VzdWUlr6IKHgVLrbJuW6-2" value="：デザイナ" style="rounded=0;whiteSpace=wrap;html=1;" vertex="1" parent="1">
          <mxGeometry x="460" y="170" width="120" height="60" as="geometry" />
        </mxCell>
        <mxCell id="VzdWUlr6IKHgVLrbJuW6-3" value="：プログラマ" style="rounded=0;whiteSpace=wrap;html=1;" vertex="1" parent="1">
          <mxGeometry x="460" y="330" width="120" height="60" as="geometry" />
        </mxCell>
        <mxCell id="VzdWUlr6IKHgVLrbJuW6-4" value="" style="endArrow=none;html=1;rounded=0;" edge="1" parent="1">
          <mxGeometry width="50" height="50" relative="1" as="geometry">
            <mxPoint x="40" y="290" as="sourcePoint" />
            <mxPoint x="180" y="289.5" as="targetPoint" />
          </mxGeometry>
        </mxCell>
        <mxCell id="VzdWUlr6IKHgVLrbJuW6-5" value="" style="endArrow=none;html=1;rounded=0;entryX=0;entryY=0.5;entryDx=0;entryDy=0;" edge="1" parent="1" target="VzdWUlr6IKHgVLrbJuW6-2">
          <mxGeometry width="50" height="50" relative="1" as="geometry">
            <mxPoint x="300" y="280" as="sourcePoint" />
            <mxPoint x="350" y="230" as="targetPoint" />
          </mxGeometry>
        </mxCell>
        <mxCell id="VzdWUlr6IKHgVLrbJuW6-6" value="" style="endArrow=none;html=1;rounded=0;entryX=0;entryY=0.5;entryDx=0;entryDy=0;" edge="1" parent="1" target="VzdWUlr6IKHgVLrbJuW6-3">
          <mxGeometry width="50" height="50" relative="1" as="geometry">
            <mxPoint x="300" y="300" as="sourcePoint" />
            <mxPoint x="350" y="250" as="targetPoint" />
          </mxGeometry>
        </mxCell>
        <mxCell id="VzdWUlr6IKHgVLrbJuW6-7" value="" style="endArrow=classic;html=1;rounded=0;" edge="1" parent="1">
          <mxGeometry width="50" height="50" relative="1" as="geometry">
            <mxPoint x="60" y="270" as="sourcePoint" />
            <mxPoint x="170" y="270" as="targetPoint" />
          </mxGeometry>
        </mxCell>
        <mxCell id="VzdWUlr6IKHgVLrbJuW6-9" value="1:開発する（）" style="text;html=1;strokeColor=none;fillColor=none;align=center;verticalAlign=middle;whiteSpace=wrap;rounded=0;" vertex="1" parent="1">
          <mxGeometry x="70" y="230" width="100" height="30" as="geometry" />
        </mxCell>
        <mxCell id="VzdWUlr6IKHgVLrbJuW6-10" value="" style="endArrow=classic;html=1;rounded=0;" edge="1" parent="1">
          <mxGeometry width="50" height="50" relative="1" as="geometry">
            <mxPoint x="320" y="250" as="sourcePoint" />
            <mxPoint x="430" y="190" as="targetPoint" />
          </mxGeometry>
        </mxCell>
        <mxCell id="VzdWUlr6IKHgVLrbJuW6-11" value="" style="endArrow=classic;html=1;rounded=0;" edge="1" parent="1">
          <mxGeometry width="50" height="50" relative="1" as="geometry">
            <mxPoint x="320" y="330" as="sourcePoint" />
            <mxPoint x="430" y="370" as="targetPoint" />
          </mxGeometry>
        </mxCell>
        <mxCell id="VzdWUlr6IKHgVLrbJuW6-12" value="2:設計する（）" style="text;html=1;strokeColor=none;fillColor=none;align=center;verticalAlign=middle;whiteSpace=wrap;rounded=0;" vertex="1" parent="1">
          <mxGeometry x="300" y="160" width="120" height="30" as="geometry" />
        </mxCell>
        <mxCell id="VzdWUlr6IKHgVLrbJuW6-13" value="3:プログラムを作成する（）" style="text;html=1;strokeColor=none;fillColor=none;align=center;verticalAlign=middle;whiteSpace=wrap;rounded=0;" vertex="1" parent="1">
          <mxGeometry x="300" y="370" width="160" height="30" as="geometry" />
        </mxCell>
      </root>
    </mxGraphModel>
  </diagram>
</mxfile>
